<svg viewBox="0 0 840 360" role="img" aria-label="Survival by FAT1 RNA expression (median split)">
<text x="0" y="24" class="chart-title">Survival by FAT1 RNA expression (median split)</text>
<text x="0" y="44" class="axis-label">Kaplan-Meier survival probability by follow-up time (days). Log-rank p = 0.0067.</text>
<rect x="72" y="72" width="728" height="210" fill="white" stroke="#cbd5e1"></rect>
<line x1="72" y1="282" x2="800" y2="282" stroke="#94a3b8"></line>
<line x1="72" y1="72" x2="72" y2="282" stroke="#94a3b8"></line>
<path d="M 72.0 72.0 L 72.2 72.0 L 72.2 72.5 L 72.4 72.5 L 72.4 72.9 L 72.5 72.9 L 72.5 73.8 L 72.6 73.8 L 72.6 74.3 L 72.9 74.3 L 72.9 74.7 L 73.2 74.7 L 73.2 75.6 L 73.3 75.6 L 73.3 75.6 L 73.5 75.6 L 73.5 75.6 L 73.8 75.6 L 73.8 76.1 L 73.9 76.1 L 73.9 76.5 L 74.3 76.5 L 74.3 77.0 L 74.4 77.0 L 74.4 77.4 L 74.8 77.4 L 74.8 77.4 L 75.0 77.4 L 75.0 77.4 L 75.1 77.4 L 75.1 77.4 L 75.4 77.4 L 75.4 77.9 L 75.5 77.9 L 75.5 77.9 L 75.7 77.9 L 75.7 77.9 L 76.1 77.9 L 76.1 77.9 L 76.2 77.9 L 76.2 77.9 L 76.4 77.9 L 76.4 77.9 L 77.0 77.9 L 77.0 77.9 L 77.2 77.9 L 77.2 78.4 L 77.9 78.4 L 77.9 78.8 L 78.1 78.8 L 78.1 79.3 L 78.2 79.3 L 78.2 79.3 L 79.4 79.3 L 79.4 79.8 L 80.0 79.8 L 80.0 80.3 L 80.2 80.3 L 80.2 80.3 L 80.4 80.3 L 80.4 80.7 L 80.7 80.7 L 80.7 81.2 L 80.8 81.2 L 80.8 81.7 L 81.1 81.7 L 81.1 82.2 L 81.2 82.2 L 81.2 82.6 L 81.7 82.6 L 81.7 83.1 L 82.5 83.1 L 82.5 83.1 L 82.9 83.1 L 82.9 83.6 L 83.1 83.6 L 83.1 83.6 L 83.9 83.6 L 83.9 84.1 L 84.0 84.1 L 84.0 84.5 L 84.2 84.5 L 84.2 85.0 L 84.4 85.0 L 84.4 86.0 L 84.5 86.0 L 84.5 86.5 L 85.2 86.5 L 85.2 86.9 L 85.5 86.9 L 85.5 86.9 L 85.9 86.9 L 85.9 87.4 L 86.0 87.4 L 86.0 87.4 L 87.1 87.4 L 87.1 87.4 L 87.2 87.4 L 87.2 87.9 L 88.1 87.9 L 88.1 87.9 L 88.2 87.9 L 88.2 88.9 L 88.6 88.9 L 88.6 88.9 L 88.7 88.9 L 88.7 89.4 L 88.8 89.4 L 88.8 89.9 L 89.4 89.9 L 89.4 90.3 L 89.5 90.3 L 89.5 90.3 L 89.7 90.3 L 89.7 90.8 L 90.7 90.8 L 90.7 90.8 L 90.9 90.8 L 90.9 91.3 L 92.3 91.3 L 92.3 91.3 L 93.1 91.3 L 93.1 91.8 L 93.2 91.8 L 93.2 92.3 L 93.3 92.3 L 93.3 92.8 L 93.6 92.8 L 93.6 93.3 L 94.4 93.3 L 94.4 93.8 L 95.1 93.8 L 95.1 93.8 L 95.7 93.8 L 95.7 94.3 L 96.3 94.3 L 96.3 94.3 L 96.4 94.3 L 96.4 94.8 L 96.5 94.8 L 96.5 94.8 L 98.1 94.8 L 98.1 95.3 L 98.7 95.3 L 98.7 95.8 L 99.5 95.8 L 99.5 96.3 L 99.6 96.3 L 99.6 96.8 L 100.5 96.8 L 100.5 97.3 L 100.6 97.3 L 100.6 97.3 L 100.8 97.3 L 100.8 97.3 L 101.2 97.3 L 101.2 98.3 L 101.5 98.3 L 101.5 98.8 L 102.1 98.8 L 102.1 99.3 L 102.3 99.3 L 102.3 99.8 L 102.4 99.8 L 102.4 100.3 L 102.8 100.3 L 102.8 100.8 L 103.2 100.8 L 103.2 101.3 L 103.6 101.3 L 103.6 101.8 L 104.2 101.8 L 104.2 102.8 L 104.5 102.8 L 104.5 102.8 L 105.0 102.8 L 105.0 103.3 L 105.7 103.3 L 105.7 103.8 L 106.2 103.8 L 106.2 104.3 L 107.3 104.3 L 107.3 104.9 L 107.9 104.9 L 107.9 105.4 L 108.8 105.4 L 108.8 105.9 L 108.9 105.9 L 108.9 105.9 L 109.7 105.9 L 109.7 105.9 L 109.8 105.9 L 109.8 106.4 L 109.9 106.4 L 109.9 106.4 L 110.0 106.4 L 110.0 106.4 L 110.5 106.4 L 110.5 107.4 L 110.7 107.4 L 110.7 107.4 L 110.9 107.4 L 110.9 107.9 L 111.4 107.9 L 111.4 107.9 L 111.8 107.9 L 111.8 107.9 L 112.1 107.9 L 112.1 108.4 L 112.3 108.4 L 112.3 108.4 L 112.4 108.4 L 112.4 108.9 L 112.8 108.9 L 112.8 108.9 L 112.9 108.9 L 112.9 108.9 L 113.0 108.9 L 113.0 109.5 L 113.1 109.5 L 113.1 110.0 L 113.3 110.0 L 113.3 110.0 L 113.6 110.0 L 113.6 110.0 L 113.7 110.0 L 113.7 110.0 L 113.8 110.0 L 113.8 110.0 L 114.2 110.0 L 114.2 110.5 L 114.5 110.5 L 114.5 110.5 L 114.6 110.5 L 114.6 110.5 L 114.8 110.5 L 114.8 110.5 L 115.0 110.5 L 115.0 111.1 L 115.1 111.1 L 115.1 111.6 L 115.6 111.6 L 115.6 112.1 L 115.7 112.1 L 115.7 112.1 L 116.2 112.1 L 116.2 112.1 L 116.4 112.1 L 116.4 112.7 L 116.6 112.7 L 116.6 113.2 L 116.8 113.2 L 116.8 113.2 L 117.0 113.2 L 117.0 113.2 L 117.6 113.2 L 117.6 113.8 L 117.7 113.8 L 117.7 114.3 L 117.8 114.3 L 117.8 114.9 L 117.9 114.9 L 117.9 115.4 L 118.2 115.4 L 118.2 116.0 L 118.4 116.0 L 118.4 116.0 L 118.6 116.0 L 118.6 116.5 L 118.7 116.5 L 118.7 116.5 L 119.0 116.5 L 119.0 117.1 L 119.1 117.1 L 119.1 117.6 L 119.6 117.6 L 119.6 118.2 L 119.8 118.2 L 119.8 118.2 L 120.3 118.2 L 120.3 118.2 L 120.6 118.2 L 120.6 118.2 L 121.0 118.2 L 121.0 118.7 L 121.3 118.7 L 121.3 118.7 L 121.5 118.7 L 121.5 118.7 L 122.0 118.7 L 122.0 118.7 L 122.2 118.7 L 122.2 119.3 L 122.8 119.3 L 122.8 119.9 L 123.3 119.9 L 123.3 119.9 L 123.7 119.9 L 123.7 119.9 L 123.8 119.9 L 123.8 120.5 L 123.9 120.5 L 123.9 120.5 L 124.8 120.5 L 124.8 120.5 L 125.3 120.5 L 125.3 120.5 L 125.4 120.5 L 125.4 121.0 L 125.8 121.0 L 125.8 121.0 L 126.0 121.0 L 126.0 121.0 L 126.1 121.0 L 126.1 121.6 L 126.2 121.6 L 126.2 121.6 L 126.6 121.6 L 126.6 122.2 L 126.7 122.2 L 126.7 122.2 L 126.8 122.2 L 126.8 122.2 L 127.2 122.2 L 127.2 122.8 L 127.4 122.8 L 127.4 123.4 L 127.5 123.4 L 127.5 123.4 L 127.7 123.4 L 127.7 123.4 L 127.9 123.4 L 127.9 124.0 L 128.3 124.0 L 128.3 124.6 L 128.4 124.6 L 128.4 125.2 L 129.0 125.2 L 129.0 125.2 L 129.1 125.2 L 129.1 125.2 L 129.6 125.2 L 129.6 125.8 L 129.7 125.8 L 129.7 126.4 L 129.9 126.4 L 129.9 126.4 L 130.1 126.4 L 130.1 126.4 L 130.2 126.4 L 130.2 126.4 L 130.5 126.4 L 130.5 127.0 L 130.8 127.0 L 130.8 127.0 L 131.4 127.0 L 131.4 127.0 L 131.6 127.0 L 131.6 127.6 L 131.9 127.6 L 131.9 127.6 L 132.1 127.6 L 132.1 128.2 L 132.2 128.2 L 132.2 128.2 L 132.3 128.2 L 132.3 128.2 L 132.4 128.2 L 132.4 128.2 L 132.6 128.2 L 132.6 128.2 L 132.7 128.2 L 132.7 128.8 L 132.8 128.8 L 132.8 128.8 L 133.1 128.8 L 133.1 128.8 L 133.2 128.8 L 133.2 128.8 L 133.8 128.8 L 133.8 128.8 L 133.9 128.8 L 133.9 128.8 L 134.0 128.8 L 134.0 128.8 L 134.1 128.8 L 134.1 128.8 L 134.9 128.8 L 134.9 129.5 L 135.3 129.5 L 135.3 129.5 L 135.5 129.5 L 135.5 130.1 L 135.7 130.1 L 135.7 130.1 L 136.3 130.1 L 136.3 130.1 L 136.4 130.1 L 136.4 130.1 L 136.5 130.1 L 136.5 130.1 L 137.2 130.1 L 137.2 130.1 L 137.4 130.1 L 137.4 130.1 L 137.5 130.1 L 137.5 130.1 L 137.6 130.1 L 137.6 130.1 L 137.9 130.1 L 137.9 130.8 L 138.1 130.8 L 138.1 130.8 L 138.7 130.8 L 138.7 130.8 L 138.9 130.8 L 138.9 131.5 L 139.0 131.5 L 139.0 132.2 L 139.2 132.2 L 139.2 132.9 L 139.3 132.9 L 139.3 132.9 L 139.4 132.9 L 139.4 132.9 L 140.0 132.9 L 140.0 132.9 L 140.1 132.9 L 140.1 133.6 L 140.6 133.6 L 140.6 133.6 L 141.0 133.6 L 141.0 134.3 L 141.7 134.3 L 141.7 135.0 L 142.0 135.0 L 142.0 135.7 L 142.2 135.7 L 142.2 135.7 L 142.3 135.7 L 142.3 135.7 L 142.5 135.7 L 142.5 136.4 L 142.7 136.4 L 142.7 136.4 L 142.8 136.4 L 142.8 136.4 L 143.9 136.4 L 143.9 137.1 L 144.1 137.1 L 144.1 137.1 L 144.2 137.1 L 144.2 137.9 L 144.7 137.9 L 144.7 137.9 L 145.1 137.9 L 145.1 137.9 L 145.3 137.9 L 145.3 137.9 L 145.7 137.9 L 145.7 138.6 L 146.0 138.6 L 146.0 139.3 L 146.2 139.3 L 146.2 139.3 L 146.3 139.3 L 146.3 140.1 L 147.0 140.1 L 147.0 140.1 L 148.0 140.1 L 148.0 140.1 L 148.3 140.1 L 148.3 140.8 L 148.4 140.8 L 148.4 141.6 L 148.5 141.6 L 148.5 141.6 L 149.3 141.6 L 149.3 142.4 L 149.6 142.4 L 149.6 142.4 L 151.3 142.4 L 151.3 142.4 L 151.4 142.4 L 151.4 142.4 L 152.8 142.4 L 152.8 142.4 L 153.1 142.4 L 153.1 143.1 L 153.2 143.1 L 153.2 143.9 L 153.4 143.9 L 153.4 143.9 L 153.7 143.9 L 153.7 143.9 L 153.9 143.9 L 153.9 143.9 L 154.6 143.9 L 154.6 144.7 L 154.8 144.7 L 154.8 144.7 L 155.0 144.7 L 155.0 146.3 L 155.1 146.3 L 155.1 147.1 L 155.9 147.1 L 155.9 148.0 L 156.3 148.0 L 156.3 148.0 L 156.4 148.0 L 156.4 148.8 L 156.6 148.8 L 156.6 148.8 L 156.9 148.8 L 156.9 148.8 L 157.3 148.8 L 157.3 148.8 L 157.6 148.8 L 157.6 148.8 L 158.6 148.8 L 158.6 148.8 L 159.0 148.8 L 159.0 148.8 L 159.1 148.8 L 159.1 148.8 L 160.5 148.8 L 160.5 149.6 L 160.6 149.6 L 160.6 149.6 L 161.3 149.6 L 161.3 149.6 L 162.0 149.6 L 162.0 150.5 L 162.3 150.5 L 162.3 151.4 L 162.8 151.4 L 162.8 151.4 L 163.5 151.4 L 163.5 151.4 L 163.7 151.4 L 163.7 151.4 L 164.0 151.4 L 164.0 152.3 L 164.7 152.3 L 164.7 152.3 L 164.9 152.3 L 164.9 152.3 L 165.1 152.3 L 165.1 153.2 L 165.3 153.2 L 165.3 154.1 L 165.6 154.1 L 165.6 154.1 L 166.1 154.1 L 166.1 154.1 L 166.2 154.1 L 166.2 154.1 L 166.6 154.1 L 166.6 154.1 L 166.8 154.1 L 166.8 154.1 L 167.1 154.1 L 167.1 154.1 L 167.4 154.1 L 167.4 155.0 L 167.6 155.0 L 167.6 155.0 L 168.9 155.0 L 168.9 156.0 L 169.7 156.0 L 169.7 156.9 L 169.8 156.9 L 169.8 157.9 L 170.3 157.9 L 170.3 157.9 L 170.7 157.9 L 170.7 157.9 L 171.4 157.9 L 171.4 157.9 L 171.9 157.9 L 171.9 159.8 L 172.1 159.8 L 172.1 159.8 L 172.5 159.8 L 172.5 160.8 L 173.0 160.8 L 173.0 161.8 L 173.7 161.8 L 173.7 161.8 L 175.6 161.8 L 175.6 161.8 L 175.7 161.8 L 175.7 161.8 L 176.1 161.8 L 176.1 161.8 L 176.3 161.8 L 176.3 161.8 L 177.0 161.8 L 177.0 162.8 L 178.2 162.8 L 178.2 163.9 L 178.8 163.9 L 178.8 163.9 L 179.2 163.9 L 179.2 164.9 L 179.6 164.9 L 179.6 164.9 L 179.7 164.9 L 179.7 164.9 L 182.2 164.9 L 182.2 164.9 L 182.5 164.9 L 182.5 164.9 L 183.9 164.9 L 183.9 166.0 L 184.0 166.0 L 184.0 167.0 L 184.4 167.0 L 184.4 167.0 L 185.1 167.0 L 185.1 167.0 L 186.8 167.0 L 186.8 168.1 L 187.3 168.1 L 187.3 168.1 L 187.5 168.1 L 187.5 169.2 L 187.9 169.2 L 187.9 170.4 L 188.2 170.4 L 188.2 170.4 L 188.5 170.4 L 188.5 170.4 L 188.6 170.4 L 188.6 171.5 L 190.1 171.5 L 190.1 171.5 L 190.5 171.5 L 190.5 171.5 L 190.7 171.5 L 190.7 171.5 L 190.8 171.5 L 190.8 171.5 L 191.4 171.5 L 191.4 172.7 L 192.1 172.7 L 192.1 172.7 L 192.2 172.7 L 192.2 173.8 L 193.7 173.8 L 193.7 173.8 L 194.9 173.8 L 194.9 173.8 L 197.2 173.8 L 197.2 173.8 L 198.6 173.8 L 198.6 173.8 L 199.4 173.8 L 199.4 173.8 L 200.6 173.8 L 200.6 173.8 L 201.1 173.8 L 201.1 173.8 L 202.7 173.8 L 202.7 173.8 L 203.7 173.8 L 203.7 173.8 L 206.1 173.8 L 206.1 175.2 L 207.0 175.2 L 207.0 176.5 L 207.2 176.5 L 207.2 177.8 L 210.5 177.8 L 210.5 179.1 L 211.2 179.1 L 211.2 179.1 L 212.6 179.1 L 212.6 179.1 L 214.9 179.1 L 214.9 180.5 L 215.2 180.5 L 215.2 181.8 L 215.5 181.8 L 215.5 181.8 L 220.2 181.8 L 220.2 181.8 L 221.2 181.8 L 221.2 183.2 L 222.6 183.2 L 222.6 183.2 L 222.8 183.2 L 222.8 184.6 L 224.6 184.6 L 224.6 184.6 L 225.0 184.6 L 225.0 184.6 L 225.5 184.6 L 225.5 186.1 L 232.7 186.1 L 232.7 187.5 L 232.9 187.5 L 232.9 187.5 L 236.6 187.5 L 236.6 187.5 L 236.7 187.5 L 236.7 189.0 L 240.9 189.0 L 240.9 189.0 L 242.2 189.0 L 242.2 190.6 L 245.1 190.6 L 245.1 190.6 L 245.9 190.6 L 245.9 190.6 L 246.4 190.6 L 246.4 192.1 L 251.2 192.1 L 251.2 192.1 L 251.8 192.1 L 251.8 193.7 L 255.2 193.7 L 255.2 193.7 L 257.5 193.7 L 257.5 193.7 L 258.4 193.7 L 258.4 195.4 L 266.1 195.4 L 266.1 195.4 L 266.2 195.4 L 266.2 197.1 L 268.2 197.1 L 268.2 198.8 L 270.4 198.8 L 270.4 200.5 L 272.1 200.5 L 272.1 200.5 L 272.6 200.5 L 272.6 200.5 L 275.3 200.5 L 275.3 200.5 L 275.5 200.5 L 275.5 200.5 L 280.2 200.5 L 280.2 200.5 L 286.2 200.5 L 286.2 200.5 L 286.3 200.5 L 286.3 200.5 L 287.1 200.5 L 287.1 200.5 L 290.0 200.5 L 290.0 202.5 L 292.9 202.5 L 292.9 202.5 L 295.7 202.5 L 295.7 202.5 L 297.8 202.5 L 297.8 202.5 L 297.9 202.5 L 297.9 204.7 L 303.4 204.7 L 303.4 207.0 L 309.0 207.0 L 309.0 207.0 L 311.2 207.0 L 311.2 207.0 L 317.8 207.0 L 317.8 207.0 L 318.0 207.0 L 318.0 207.0 L 321.9 207.0 L 321.9 207.0 L 324.1 207.0 L 324.1 207.0 L 327.3 207.0 L 327.3 207.0 L 334.9 207.0 L 334.9 209.7 L 335.2 209.7 L 335.2 212.5 L 337.1 212.5 L 337.1 215.3 L 340.8 215.3 L 340.8 215.3 L 341.2 215.3 L 341.2 218.2 L 344.8 218.2 L 344.8 218.2 L 353.5 218.2 L 353.5 221.2 L 354.3 221.2 L 354.3 221.2 L 356.5 221.2 L 356.5 221.2 L 371.2 221.2 L 371.2 224.6 L 374.9 224.6 L 374.9 224.6 L 379.3 224.6 L 379.3 224.6 L 385.7 224.6 L 385.7 224.6 L 388.3 224.6 L 388.3 228.7 L 398.7 228.7 L 398.7 232.8 L 412.2 232.8 L 412.2 232.8 L 431.2 232.8 L 431.2 232.8 L 437.1 232.8 L 437.1 232.8 L 438.0 232.8 L 438.0 232.8 L 446.0 232.8 L 446.0 232.8 L 448.4 232.8 L 448.4 232.8 L 458.7 232.8 L 458.7 232.8 L 476.4 232.8 L 476.4 232.8 L 480.6 232.8 L 480.6 232.8 L 531.0 232.8 L 531.0 232.8 L 543.5 232.8 L 543.5 232.8 L 550.6 232.8 L 550.6 232.8" fill="none" stroke="#3b82f6" stroke-width="3"></path>
<path d="M 72.0 72.0 L 72.3 72.0 L 72.3 72.5 L 72.8 72.5 L 72.8 72.5 L 73.1 72.5 L 73.1 72.5 L 73.2 72.5 L 73.2 72.5 L 73.3 72.5 L 73.3 72.5 L 73.4 72.5 L 73.4 72.5 L 73.5 72.5 L 73.5 72.5 L 73.7 72.5 L 73.7 72.9 L 74.2 72.9 L 74.2 73.4 L 75.0 73.4 L 75.0 73.4 L 75.1 73.4 L 75.1 73.4 L 75.3 73.4 L 75.3 73.8 L 75.8 73.8 L 75.8 74.3 L 76.4 74.3 L 76.4 74.3 L 76.8 74.3 L 76.8 74.3 L 77.3 74.3 L 77.3 74.7 L 77.5 74.7 L 77.5 74.7 L 77.8 74.7 L 77.8 75.2 L 78.0 75.2 L 78.0 75.2 L 78.1 75.2 L 78.1 75.2 L 78.2 75.2 L 78.2 75.7 L 79.0 75.7 L 79.0 75.7 L 80.3 75.7 L 80.3 75.7 L 80.4 75.7 L 80.4 75.7 L 80.5 75.7 L 80.5 76.1 L 81.4 76.1 L 81.4 76.6 L 81.7 76.6 L 81.7 76.6 L 81.9 76.6 L 81.9 77.1 L 82.3 77.1 L 82.3 77.1 L 82.6 77.1 L 82.6 77.1 L 83.7 77.1 L 83.7 78.0 L 84.0 78.0 L 84.0 78.0 L 84.3 78.0 L 84.3 78.0 L 84.9 78.0 L 84.9 78.0 L 85.0 78.0 L 85.0 78.0 L 85.4 78.0 L 85.4 78.0 L 85.6 78.0 L 85.6 78.0 L 85.7 78.0 L 85.7 78.5 L 86.2 78.5 L 86.2 78.5 L 86.4 78.5 L 86.4 79.0 L 86.7 79.0 L 86.7 79.5 L 87.2 79.5 L 87.2 79.5 L 87.4 79.5 L 87.4 80.0 L 87.5 80.0 L 87.5 80.5 L 88.7 80.5 L 88.7 81.0 L 89.2 81.0 L 89.2 81.4 L 90.0 81.4 L 90.0 81.9 L 90.1 81.9 L 90.1 82.4 L 90.3 82.4 L 90.3 82.4 L 90.5 82.4 L 90.5 82.4 L 90.8 82.4 L 90.8 82.9 L 91.4 82.9 L 91.4 83.4 L 91.6 83.4 L 91.6 83.9 L 91.9 83.9 L 91.9 84.9 L 92.3 84.9 L 92.3 84.9 L 92.8 84.9 L 92.8 84.9 L 93.9 84.9 L 93.9 84.9 L 94.6 84.9 L 94.6 84.9 L 94.8 84.9 L 94.8 84.9 L 95.8 84.9 L 95.8 85.4 L 95.9 85.4 L 95.9 85.4 L 96.5 85.4 L 96.5 86.4 L 96.8 86.4 L 96.8 86.4 L 97.7 86.4 L 97.7 86.4 L 97.9 86.4 L 97.9 86.9 L 98.2 86.9 L 98.2 87.4 L 98.5 87.4 L 98.5 87.4 L 98.9 87.4 L 98.9 87.9 L 99.5 87.9 L 99.5 88.4 L 100.2 88.4 L 100.2 88.9 L 101.7 88.9 L 101.7 88.9 L 102.0 88.9 L 102.0 89.4 L 102.7 89.4 L 102.7 89.9 L 102.8 89.9 L 102.8 90.4 L 102.9 90.4 L 102.9 90.9 L 104.3 90.9 L 104.3 91.4 L 105.7 91.4 L 105.7 91.9 L 106.0 91.9 L 106.0 92.4 L 106.2 92.4 L 106.2 93.4 L 106.5 93.4 L 106.5 93.9 L 106.7 93.9 L 106.7 95.0 L 107.3 95.0 L 107.3 95.0 L 107.5 95.0 L 107.5 95.0 L 107.6 95.0 L 107.6 95.5 L 108.0 95.5 L 108.0 96.5 L 108.2 96.5 L 108.2 97.0 L 108.7 97.0 L 108.7 97.0 L 109.2 97.0 L 109.2 97.5 L 109.3 97.5 L 109.3 98.0 L 109.4 98.0 L 109.4 98.5 L 109.7 98.5 L 109.7 99.0 L 109.9 99.0 L 109.9 99.0 L 110.7 99.0 L 110.7 99.6 L 111.9 99.6 L 111.9 100.1 L 112.7 100.1 L 112.7 100.1 L 113.0 100.1 L 113.0 100.1 L 113.1 100.1 L 113.1 100.1 L 113.7 100.1 L 113.7 100.1 L 114.0 100.1 L 114.0 100.6 L 114.4 100.6 L 114.4 100.6 L 114.8 100.6 L 114.8 100.6 L 114.9 100.6 L 114.9 100.6 L 115.0 100.6 L 115.0 101.1 L 115.1 101.1 L 115.1 101.7 L 115.2 101.7 L 115.2 101.7 L 115.4 101.7 L 115.4 101.7 L 115.7 101.7 L 115.7 101.7 L 116.2 101.7 L 116.2 102.2 L 116.4 102.2 L 116.4 102.7 L 116.7 102.7 L 116.7 103.3 L 117.0 103.3 L 117.0 103.8 L 117.7 103.8 L 117.7 103.8 L 117.9 103.8 L 117.9 103.8 L 118.8 103.8 L 118.8 103.8 L 118.9 103.8 L 118.9 103.8 L 119.0 103.8 L 119.0 103.8 L 119.8 103.8 L 119.8 103.8 L 119.9 103.8 L 119.9 103.8 L 120.0 103.8 L 120.0 103.8 L 120.3 103.8 L 120.3 103.8 L 120.4 103.8 L 120.4 103.8 L 120.8 103.8 L 120.8 103.8 L 120.9 103.8 L 120.9 103.8 L 121.2 103.8 L 121.2 104.4 L 121.4 104.4 L 121.4 104.4 L 122.1 104.4 L 122.1 104.4 L 122.5 104.4 L 122.5 104.9 L 123.2 104.9 L 123.2 104.9 L 123.5 104.9 L 123.5 104.9 L 123.7 104.9 L 123.7 105.5 L 124.1 105.5 L 124.1 106.1 L 124.2 106.1 L 124.2 106.1 L 124.4 106.1 L 124.4 106.1 L 125.6 106.1 L 125.6 106.1 L 125.9 106.1 L 125.9 106.1 L 126.1 106.1 L 126.1 106.1 L 126.3 106.1 L 126.3 106.1 L 126.5 106.1 L 126.5 106.7 L 126.9 106.7 L 126.9 106.7 L 127.2 106.7 L 127.2 107.2 L 127.3 107.2 L 127.3 107.2 L 127.4 107.2 L 127.4 107.2 L 128.1 107.2 L 128.1 107.8 L 128.6 107.8 L 128.6 107.8 L 128.7 107.8 L 128.7 107.8 L 129.1 107.8 L 129.1 107.8 L 129.3 107.8 L 129.3 107.8 L 129.6 107.8 L 129.6 107.8 L 130.1 107.8 L 130.1 107.8 L 130.4 107.8 L 130.4 107.8 L 130.9 107.8 L 130.9 108.4 L 131.0 108.4 L 131.0 109.1 L 131.2 109.1 L 131.2 109.1 L 131.5 109.1 L 131.5 109.1 L 131.7 109.1 L 131.7 109.7 L 131.8 109.7 L 131.8 109.7 L 131.9 109.7 L 131.9 109.7 L 132.3 109.7 L 132.3 109.7 L 132.4 109.7 L 132.4 109.7 L 132.6 109.7 L 132.6 109.7 L 132.8 109.7 L 132.8 109.7 L 133.0 109.7 L 133.0 110.3 L 133.1 110.3 L 133.1 110.3 L 133.3 110.3 L 133.3 110.3 L 133.7 110.3 L 133.7 110.3 L 134.0 110.3 L 134.0 110.3 L 134.6 110.3 L 134.6 111.0 L 134.7 111.0 L 134.7 111.6 L 134.8 111.6 L 134.8 112.3 L 134.9 112.3 L 134.9 112.3 L 135.1 112.3 L 135.1 112.9 L 135.2 112.9 L 135.2 112.9 L 135.3 112.9 L 135.3 112.9 L 136.0 112.9 L 136.0 112.9 L 136.2 112.9 L 136.2 112.9 L 136.8 112.9 L 136.8 113.6 L 137.4 113.6 L 137.4 113.6 L 137.5 113.6 L 137.5 113.6 L 138.1 113.6 L 138.1 113.6 L 138.3 113.6 L 138.3 113.6 L 139.3 113.6 L 139.3 113.6 L 139.7 113.6 L 139.7 113.6 L 140.0 113.6 L 140.0 114.3 L 140.6 114.3 L 140.6 114.3 L 140.7 114.3 L 140.7 115.0 L 141.1 115.0 L 141.1 115.0 L 141.2 115.0 L 141.2 115.0 L 141.3 115.0 L 141.3 115.0 L 141.4 115.0 L 141.4 115.0 L 141.5 115.0 L 141.5 115.7 L 142.4 115.7 L 142.4 116.4 L 142.7 116.4 L 142.7 116.4 L 142.8 116.4 L 142.8 116.4 L 143.1 116.4 L 143.1 117.1 L 143.4 117.1 L 143.4 117.8 L 144.0 117.8 L 144.0 117.8 L 144.2 117.8 L 144.2 117.8 L 144.6 117.8 L 144.6 117.8 L 145.3 117.8 L 145.3 117.8 L 145.4 117.8 L 145.4 118.5 L 146.4 118.5 L 146.4 118.5 L 148.2 118.5 L 148.2 118.5 L 148.4 118.5 L 148.4 118.5 L 148.8 118.5 L 148.8 118.5 L 149.2 118.5 L 149.2 118.5 L 149.8 118.5 L 149.8 118.5 L 151.4 118.5 L 151.4 118.5 L 152.4 118.5 L 152.4 119.3 L 152.7 119.3 L 152.7 120.0 L 152.9 120.0 L 152.9 120.0 L 153.0 120.0 L 153.0 120.0 L 154.0 120.0 L 154.0 120.0 L 154.2 120.0 L 154.2 120.0 L 154.6 120.0 L 154.6 120.0 L 154.8 120.0 L 154.8 120.0 L 155.0 120.0 L 155.0 120.8 L 155.1 120.8 L 155.1 120.8 L 155.4 120.8 L 155.4 120.8 L 155.7 120.8 L 155.7 120.8 L 157.9 120.8 L 157.9 121.6 L 158.7 121.6 L 158.7 121.6 L 158.8 121.6 L 158.8 122.4 L 159.3 122.4 L 159.3 123.2 L 159.6 123.2 L 159.6 123.2 L 160.3 123.2 L 160.3 124.0 L 160.6 124.0 L 160.6 124.0 L 161.2 124.0 L 161.2 124.0 L 162.0 124.0 L 162.0 124.8 L 162.9 124.8 L 162.9 125.6 L 163.2 125.6 L 163.2 125.6 L 163.4 125.6 L 163.4 125.6 L 163.5 125.6 L 163.5 125.6 L 163.6 125.6 L 163.6 125.6 L 164.5 125.6 L 164.5 126.5 L 164.6 126.5 L 164.6 127.3 L 165.4 127.3 L 165.4 127.3 L 165.7 127.3 L 165.7 128.2 L 167.3 128.2 L 167.3 129.0 L 167.5 129.0 L 167.5 129.9 L 167.6 129.9 L 167.6 130.7 L 168.4 130.7 L 168.4 130.7 L 168.6 130.7 L 168.6 131.6 L 170.0 131.6 L 170.0 132.5 L 170.1 132.5 L 170.1 132.5 L 171.1 132.5 L 171.1 133.3 L 171.2 133.3 L 171.2 133.3 L 171.7 133.3 L 171.7 133.3 L 171.9 133.3 L 171.9 133.3 L 172.3 133.3 L 172.3 134.2 L 173.1 134.2 L 173.1 134.2 L 173.5 134.2 L 173.5 134.2 L 175.1 134.2 L 175.1 135.1 L 176.5 135.1 L 176.5 135.1 L 176.8 135.1 L 176.8 136.0 L 177.1 136.0 L 177.1 136.9 L 177.5 136.9 L 177.5 136.9 L 177.7 136.9 L 177.7 136.9 L 178.3 136.9 L 178.3 137.8 L 178.5 137.8 L 178.5 137.8 L 179.7 137.8 L 179.7 137.8 L 179.8 137.8 L 179.8 138.7 L 180.0 138.7 L 180.0 139.6 L 180.4 139.6 L 180.4 139.6 L 180.6 139.6 L 180.6 140.6 L 181.7 140.6 L 181.7 140.6 L 182.2 140.6 L 182.2 141.5 L 183.1 141.5 L 183.1 141.5 L 183.2 141.5 L 183.2 142.4 L 183.6 142.4 L 183.6 142.4 L 183.8 142.4 L 183.8 142.4 L 184.3 142.4 L 184.3 142.4 L 185.0 142.4 L 185.0 142.4 L 185.1 142.4 L 185.1 142.4 L 185.5 142.4 L 185.5 142.4 L 186.0 142.4 L 186.0 143.4 L 187.2 143.4 L 187.2 144.4 L 188.4 144.4 L 188.4 144.4 L 188.8 144.4 L 188.8 144.4 L 189.2 144.4 L 189.2 145.4 L 189.6 145.4 L 189.6 146.4 L 190.0 146.4 L 190.0 146.4 L 190.3 146.4 L 190.3 146.4 L 191.4 146.4 L 191.4 146.4 L 191.5 146.4 L 191.5 147.4 L 191.9 147.4 L 191.9 148.4 L 193.4 148.4 L 193.4 149.4 L 194.0 149.4 L 194.0 150.4 L 194.2 150.4 L 194.2 150.4 L 194.8 150.4 L 194.8 150.4 L 195.4 150.4 L 195.4 151.5 L 195.8 151.5 L 195.8 151.5 L 196.4 151.5 L 196.4 151.5 L 196.9 151.5 L 196.9 151.5 L 198.5 151.5 L 198.5 151.5 L 199.1 151.5 L 199.1 152.5 L 199.4 152.5 L 199.4 153.6 L 199.8 153.6 L 199.8 153.6 L 200.6 153.6 L 200.6 153.6 L 201.4 153.6 L 201.4 154.7 L 201.9 154.7 L 201.9 155.8 L 202.3 155.8 L 202.3 155.8 L 203.1 155.8 L 203.1 155.8 L 204.1 155.8 L 204.1 156.9 L 205.0 156.9 L 205.0 156.9 L 205.9 156.9 L 205.9 156.9 L 206.2 156.9 L 206.2 156.9 L 206.4 156.9 L 206.4 158.0 L 207.7 158.0 L 207.7 158.0 L 208.3 158.0 L 208.3 159.2 L 209.3 159.2 L 209.3 159.2 L 214.7 159.2 L 214.7 160.3 L 215.7 160.3 L 215.7 160.3 L 215.8 160.3 L 215.8 160.3 L 216.8 160.3 L 216.8 160.3 L 218.0 160.3 L 218.0 161.5 L 219.6 161.5 L 219.6 162.7 L 220.6 162.7 L 220.6 162.7 L 221.9 162.7 L 221.9 163.9 L 222.6 163.9 L 222.6 165.1 L 223.2 165.1 L 223.2 165.1 L 224.3 165.1 L 224.3 166.4 L 225.8 166.4 L 225.8 167.6 L 226.8 167.6 L 226.8 167.6 L 228.6 167.6 L 228.6 167.6 L 234.4 167.6 L 234.4 167.6 L 234.8 167.6 L 234.8 167.6 L 234.9 167.6 L 234.9 168.9 L 235.9 168.9 L 235.9 170.2 L 237.2 170.2 L 237.2 170.2 L 238.0 170.2 L 238.0 171.5 L 238.2 171.5 L 238.2 172.8 L 240.6 172.8 L 240.6 174.2 L 241.0 174.2 L 241.0 174.2 L 241.7 174.2 L 241.7 174.2 L 242.8 174.2 L 242.8 174.2 L 244.1 174.2 L 244.1 175.5 L 245.3 175.5 L 245.3 176.9 L 245.6 176.9 L 245.6 176.9 L 247.1 176.9 L 247.1 176.9 L 250.6 176.9 L 250.6 178.3 L 252.6 178.3 L 252.6 179.7 L 255.8 179.7 L 255.8 181.1 L 256.9 181.1 L 256.9 182.5 L 257.3 182.5 L 257.3 182.5 L 258.0 182.5 L 258.0 182.5 L 259.2 182.5 L 259.2 182.5 L 259.8 182.5 L 259.8 182.5 L 260.2 182.5 L 260.2 184.0 L 261.2 184.0 L 261.2 184.0 L 262.1 184.0 L 262.1 184.0 L 264.0 184.0 L 264.0 185.6 L 265.6 185.6 L 265.6 185.6 L 269.2 185.6 L 269.2 185.6 L 269.4 185.6 L 269.4 185.6 L 270.3 185.6 L 270.3 185.6 L 275.2 185.6 L 275.2 185.6 L 275.6 185.6 L 275.6 187.2 L 279.4 187.2 L 279.4 187.2 L 279.6 187.2 L 279.6 187.2 L 280.9 187.2 L 280.9 187.2 L 281.5 187.2 L 281.5 189.0 L 283.8 189.0 L 283.8 189.0 L 286.2 189.0 L 286.2 190.9 L 286.6 190.9 L 286.6 190.9 L 287.7 190.9 L 287.7 190.9 L 289.0 190.9 L 289.0 192.8 L 289.1 192.8 L 289.1 192.8 L 289.5 192.8 L 289.5 192.8 L 290.4 192.8 L 290.4 194.7 L 295.4 194.7 L 295.4 196.7 L 299.1 196.7 L 299.1 196.7 L 301.4 196.7 L 301.4 198.8 L 306.6 198.8 L 306.6 198.8 L 309.8 198.8 L 309.8 198.8 L 310.8 198.8 L 310.8 201.0 L 314.0 201.0 L 314.0 203.2 L 315.0 203.2 L 315.0 203.2 L 320.2 203.2 L 320.2 203.2 L 324.6 203.2 L 324.6 203.2 L 332.0 203.2 L 332.0 203.2 L 332.1 203.2 L 332.1 203.2 L 332.6 203.2 L 332.6 203.2 L 334.8 203.2 L 334.8 203.2 L 335.7 203.2 L 335.7 205.9 L 337.7 205.9 L 337.7 205.9 L 341.3 205.9 L 341.3 208.7 L 355.2 208.7 L 355.2 208.7 L 355.5 208.7 L 355.5 208.7 L 367.8 208.7 L 367.8 211.8 L 370.6 211.8 L 370.6 211.8 L 384.2 211.8 L 384.2 211.8 L 390.0 211.8 L 390.0 211.8 L 392.3 211.8 L 392.3 211.8 L 399.5 211.8 L 399.5 211.8 L 404.0 211.8 L 404.0 211.8 L 409.6 211.8 L 409.6 215.9 L 433.6 215.9 L 433.6 220.0 L 437.2 220.0 L 437.2 220.0 L 441.0 220.0 L 441.0 220.0 L 449.6 220.0 L 449.6 220.0 L 457.5 220.0 L 457.5 225.2 L 466.1 225.2 L 466.1 230.4 L 467.7 230.4 L 467.7 230.4 L 479.1 230.4 L 479.1 230.4 L 500.0 230.4 L 500.0 230.4 L 534.1 230.4 L 534.1 237.7 L 550.6 237.7 L 550.6 237.7 L 573.4 237.7 L 573.4 237.7 L 603.0 237.7 L 603.0 248.8 L 748.2 248.8 L 748.2 248.8 L 781.3 248.8 L 781.3 248.8 L 800.0 248.8 L 800.0 248.8" fill="none" stroke="#f97316" stroke-width="3"></path>
<text x="72" y="306" class="axis-label">0</text>
<text x="730" y="306" class="axis-label">7248</text>
<text x="366.0" y="326" class="axis-label">Follow-up time (days)</text>
<text x="8" y="217.0" class="axis-label" transform="rotate(-90 8 217.0)">Survival probability</text>
<text x="64" y="80" class="axis-label" text-anchor="end">1.0</text>
<text x="64" y="282" class="axis-label" text-anchor="end">0.0</text>
<rect x="80" y="84" width="14" height="10" fill="#3b82f6"></rect>
<text x="100" y="94" class="legend">High expression, n=465, events=192</text>
<rect x="80" y="102" width="14" height="10" fill="#f97316"></rect>
<text x="100" y="112" class="legend">Low expression, n=466, events=169</text>
</svg>