<svg viewBox="0 0 840 360" role="img" aria-label="Survival by SOX2 RNA expression (median split)">
<text x="0" y="24" class="chart-title">Survival by SOX2 RNA expression (median split)</text>
<text x="0" y="44" class="axis-label">Kaplan-Meier survival probability by follow-up time (days). Log-rank p = 0.0244.</text>
<rect x="72" y="72" width="728" height="210" fill="white" stroke="#cbd5e1"></rect>
<line x1="72" y1="282" x2="800" y2="282" stroke="#94a3b8"></line>
<line x1="72" y1="72" x2="72" y2="282" stroke="#94a3b8"></line>
<path d="M 72.0 72.0 L 72.2 72.0 L 72.2 72.5 L 72.3 72.5 L 72.3 72.9 L 72.4 72.9 L 72.4 72.9 L 72.5 72.9 L 72.5 73.8 L 72.6 73.8 L 72.6 74.3 L 72.8 74.3 L 72.8 74.3 L 72.9 74.3 L 72.9 74.7 L 73.2 74.7 L 73.2 75.6 L 73.3 75.6 L 73.3 75.6 L 73.5 75.6 L 73.5 75.6 L 74.4 75.6 L 74.4 76.1 L 74.8 76.1 L 74.8 76.1 L 75.0 76.1 L 75.0 76.1 L 75.1 76.1 L 75.1 76.1 L 75.4 76.1 L 75.4 76.5 L 75.5 76.5 L 75.5 76.5 L 75.7 76.5 L 75.7 76.5 L 76.1 76.5 L 76.1 76.5 L 76.2 76.5 L 76.2 76.5 L 77.3 76.5 L 77.3 77.0 L 77.9 77.0 L 77.9 77.5 L 78.1 77.5 L 78.1 77.9 L 80.0 77.9 L 80.0 78.4 L 80.2 78.4 L 80.2 78.4 L 80.3 78.4 L 80.3 78.4 L 80.5 78.4 L 80.5 78.9 L 80.7 78.9 L 80.7 79.4 L 80.8 79.4 L 80.8 79.8 L 81.2 79.8 L 81.2 80.3 L 81.4 80.3 L 81.4 80.8 L 82.3 80.8 L 82.3 80.8 L 82.5 80.8 L 82.5 80.8 L 82.6 80.8 L 82.6 80.8 L 83.1 80.8 L 83.1 80.8 L 83.7 80.8 L 83.7 81.3 L 84.2 81.3 L 84.2 81.3 L 84.3 81.3 L 84.3 81.3 L 84.4 81.3 L 84.4 82.2 L 85.2 82.2 L 85.2 82.7 L 85.7 82.7 L 85.7 83.2 L 85.9 83.2 L 85.9 83.7 L 86.0 83.7 L 86.0 83.7 L 86.4 83.7 L 86.4 84.2 L 86.7 84.2 L 86.7 84.7 L 87.1 84.7 L 87.1 84.7 L 87.2 84.7 L 87.2 85.2 L 87.4 85.2 L 87.4 85.6 L 88.1 85.6 L 88.1 85.6 L 88.2 85.6 L 88.2 86.1 L 88.7 86.1 L 88.7 86.6 L 89.4 86.6 L 89.4 86.6 L 90.1 86.6 L 90.1 87.1 L 90.9 87.1 L 90.9 87.6 L 91.6 87.6 L 91.6 88.1 L 91.9 88.1 L 91.9 88.6 L 92.3 88.6 L 92.3 88.6 L 93.1 88.6 L 93.1 89.1 L 93.2 89.1 L 93.2 89.1 L 93.3 89.1 L 93.3 89.6 L 94.4 89.6 L 94.4 90.1 L 94.8 90.1 L 94.8 90.1 L 95.7 90.1 L 95.7 90.1 L 95.9 90.1 L 95.9 90.1 L 96.5 90.1 L 96.5 91.1 L 98.1 91.1 L 98.1 91.6 L 98.2 91.6 L 98.2 92.1 L 98.5 92.1 L 98.5 92.1 L 98.7 92.1 L 98.7 92.6 L 100.5 92.6 L 100.5 93.1 L 100.6 93.1 L 100.6 93.1 L 101.2 93.1 L 101.2 93.6 L 101.7 93.6 L 101.7 93.6 L 102.0 93.6 L 102.0 94.1 L 102.7 94.1 L 102.7 94.6 L 102.8 94.6 L 102.8 95.1 L 102.9 95.1 L 102.9 95.6 L 103.2 95.6 L 103.2 96.1 L 103.6 96.1 L 103.6 96.6 L 104.5 96.6 L 104.5 96.6 L 106.2 96.6 L 106.2 97.1 L 106.7 97.1 L 106.7 97.6 L 107.3 97.6 L 107.3 98.1 L 107.5 98.1 L 107.5 98.1 L 107.9 98.1 L 107.9 98.6 L 108.0 98.6 L 108.0 99.6 L 108.2 99.6 L 108.2 100.1 L 108.8 100.1 L 108.8 100.7 L 109.2 100.7 L 109.2 100.7 L 109.7 100.7 L 109.7 101.2 L 109.8 101.2 L 109.8 101.7 L 109.9 101.7 L 109.9 101.7 L 110.0 101.7 L 110.0 101.7 L 110.9 101.7 L 110.9 102.2 L 111.4 102.2 L 111.4 102.2 L 111.8 102.2 L 111.8 102.2 L 112.1 102.2 L 112.1 102.7 L 112.3 102.7 L 112.3 102.7 L 112.4 102.7 L 112.4 103.2 L 112.7 103.2 L 112.7 103.2 L 112.8 103.2 L 112.8 103.2 L 112.9 103.2 L 112.9 103.2 L 113.1 103.2 L 113.1 103.7 L 113.7 103.7 L 113.7 103.7 L 114.0 103.7 L 114.0 104.3 L 114.2 104.3 L 114.2 104.8 L 114.5 104.8 L 114.5 104.8 L 114.6 104.8 L 114.6 104.8 L 115.0 104.8 L 115.0 105.3 L 115.1 105.3 L 115.1 105.9 L 115.2 105.9 L 115.2 105.9 L 115.7 105.9 L 115.7 105.9 L 116.2 105.9 L 116.2 106.4 L 116.4 106.4 L 116.4 107.5 L 116.6 107.5 L 116.6 108.0 L 116.7 108.0 L 116.7 108.6 L 117.0 108.6 L 117.0 109.1 L 117.7 109.1 L 117.7 109.6 L 118.7 109.6 L 118.7 109.6 L 119.9 109.6 L 119.9 109.6 L 120.3 109.6 L 120.3 109.6 L 120.4 109.6 L 120.4 109.6 L 121.2 109.6 L 121.2 110.2 L 121.3 110.2 L 121.3 110.2 L 121.4 110.2 L 121.4 110.2 L 122.8 110.2 L 122.8 110.7 L 123.2 110.7 L 123.2 110.7 L 123.3 110.7 L 123.3 110.7 L 123.7 110.7 L 123.7 111.3 L 123.8 111.3 L 123.8 111.9 L 123.9 111.9 L 123.9 111.9 L 124.2 111.9 L 124.2 111.9 L 125.3 111.9 L 125.3 111.9 L 125.4 111.9 L 125.4 112.4 L 125.8 112.4 L 125.8 112.4 L 126.0 112.4 L 126.0 112.4 L 126.5 112.4 L 126.5 113.0 L 126.6 113.0 L 126.6 113.6 L 127.2 113.6 L 127.2 114.1 L 127.4 114.1 L 127.4 114.7 L 127.7 114.7 L 127.7 114.7 L 127.9 114.7 L 127.9 114.7 L 128.1 114.7 L 128.1 114.7 L 128.3 114.7 L 128.3 115.3 L 128.4 115.3 L 128.4 115.9 L 128.6 115.9 L 128.6 115.9 L 128.7 115.9 L 128.7 115.9 L 129.3 115.9 L 129.3 115.9 L 129.6 115.9 L 129.6 116.4 L 129.7 116.4 L 129.7 117.0 L 129.9 117.0 L 129.9 117.0 L 130.1 117.0 L 130.1 117.0 L 130.2 117.0 L 130.2 117.0 L 130.4 117.0 L 130.4 117.0 L 130.8 117.0 L 130.8 117.0 L 131.0 117.0 L 131.0 117.6 L 131.2 117.6 L 131.2 117.6 L 131.5 117.6 L 131.5 117.6 L 131.6 117.6 L 131.6 118.2 L 132.3 118.2 L 132.3 118.2 L 132.4 118.2 L 132.4 118.2 L 132.8 118.2 L 132.8 118.2 L 133.0 118.2 L 133.0 118.8 L 133.1 118.8 L 133.1 118.8 L 133.3 118.8 L 133.3 118.8 L 133.9 118.8 L 133.9 118.8 L 134.0 118.8 L 134.0 118.8 L 134.1 118.8 L 134.1 118.8 L 134.6 118.8 L 134.6 119.5 L 134.9 119.5 L 134.9 119.5 L 135.1 119.5 L 135.1 120.1 L 135.3 120.1 L 135.3 120.1 L 135.5 120.1 L 135.5 120.7 L 136.0 120.7 L 136.0 120.7 L 136.2 120.7 L 136.2 120.7 L 136.3 120.7 L 136.3 120.7 L 136.4 120.7 L 136.4 120.7 L 136.5 120.7 L 136.5 120.7 L 137.2 120.7 L 137.2 120.7 L 137.4 120.7 L 137.4 120.7 L 137.6 120.7 L 137.6 120.7 L 138.3 120.7 L 138.3 120.7 L 138.9 120.7 L 138.9 120.7 L 139.2 120.7 L 139.2 120.7 L 140.0 120.7 L 140.0 121.4 L 140.1 121.4 L 140.1 122.0 L 140.6 122.0 L 140.6 122.0 L 140.7 122.0 L 140.7 122.7 L 141.0 122.7 L 141.0 123.4 L 141.1 123.4 L 141.1 123.4 L 142.2 123.4 L 142.2 123.4 L 142.3 123.4 L 142.3 123.4 L 142.4 123.4 L 142.4 124.1 L 142.7 124.1 L 142.7 124.1 L 142.8 124.1 L 142.8 124.1 L 143.1 124.1 L 143.1 124.7 L 143.9 124.7 L 143.9 125.4 L 144.0 125.4 L 144.0 125.4 L 145.4 125.4 L 145.4 126.1 L 145.7 126.1 L 145.7 126.8 L 146.3 126.8 L 146.3 127.5 L 148.2 127.5 L 148.2 127.5 L 148.4 127.5 L 148.4 127.5 L 148.5 127.5 L 148.5 127.5 L 148.8 127.5 L 148.8 127.5 L 149.2 127.5 L 149.2 127.5 L 149.3 127.5 L 149.3 128.2 L 151.3 128.2 L 151.3 128.2 L 152.7 128.2 L 152.7 128.9 L 152.8 128.9 L 152.8 128.9 L 153.4 128.9 L 153.4 128.9 L 153.9 128.9 L 153.9 128.9 L 154.0 128.9 L 154.0 128.9 L 154.2 128.9 L 154.2 128.9 L 154.8 128.9 L 154.8 128.9 L 155.0 128.9 L 155.0 129.7 L 155.1 129.7 L 155.1 130.4 L 155.7 130.4 L 155.7 130.4 L 156.4 130.4 L 156.4 131.2 L 156.6 131.2 L 156.6 131.2 L 158.6 131.2 L 158.6 131.2 L 158.8 131.2 L 158.8 131.2 L 159.1 131.2 L 159.1 131.2 L 160.5 131.2 L 160.5 131.9 L 161.3 131.9 L 161.3 131.9 L 162.0 131.9 L 162.0 132.7 L 162.3 132.7 L 162.3 133.5 L 163.2 133.5 L 163.2 133.5 L 163.4 133.5 L 163.4 133.5 L 163.5 133.5 L 163.5 133.5 L 163.6 133.5 L 163.6 133.5 L 163.7 133.5 L 163.7 133.5 L 164.0 133.5 L 164.0 134.3 L 164.5 134.3 L 164.5 135.1 L 164.7 135.1 L 164.7 135.1 L 164.9 135.1 L 164.9 135.1 L 165.3 135.1 L 165.3 135.9 L 165.4 135.9 L 165.4 135.9 L 165.6 135.9 L 165.6 135.9 L 166.1 135.9 L 166.1 135.9 L 166.2 135.9 L 166.2 135.9 L 166.6 135.9 L 166.6 135.9 L 167.5 135.9 L 167.5 136.7 L 167.6 136.7 L 167.6 136.7 L 168.4 136.7 L 168.4 136.7 L 168.6 136.7 L 168.6 137.5 L 169.7 137.5 L 169.7 138.4 L 169.8 138.4 L 169.8 139.2 L 170.3 139.2 L 170.3 139.2 L 170.7 139.2 L 170.7 139.2 L 171.4 139.2 L 171.4 139.2 L 171.9 139.2 L 171.9 139.2 L 172.1 139.2 L 172.1 139.2 L 172.5 139.2 L 172.5 140.1 L 173.1 140.1 L 173.1 140.1 L 173.5 140.1 L 173.5 140.1 L 173.7 140.1 L 173.7 140.1 L 176.3 140.1 L 176.3 140.1 L 176.5 140.1 L 176.5 140.1 L 177.0 140.1 L 177.0 141.0 L 177.5 141.0 L 177.5 141.0 L 177.7 141.0 L 177.7 141.0 L 178.2 141.0 L 178.2 141.9 L 178.3 141.9 L 178.3 142.8 L 178.8 142.8 L 178.8 142.8 L 179.6 142.8 L 179.6 142.8 L 179.7 142.8 L 179.7 142.8 L 180.0 142.8 L 180.0 143.7 L 180.6 143.7 L 180.6 144.6 L 181.7 144.6 L 181.7 144.6 L 182.2 144.6 L 182.2 145.6 L 182.5 145.6 L 182.5 145.6 L 183.1 145.6 L 183.1 145.6 L 183.6 145.6 L 183.6 145.6 L 183.8 145.6 L 183.8 145.6 L 183.9 145.6 L 183.9 146.5 L 186.8 146.5 L 186.8 147.5 L 187.3 147.5 L 187.3 147.5 L 187.5 147.5 L 187.5 148.5 L 187.9 148.5 L 187.9 149.5 L 188.2 149.5 L 188.2 149.5 L 188.5 149.5 L 188.5 149.5 L 188.6 149.5 L 188.6 150.4 L 190.3 150.4 L 190.3 150.4 L 190.5 150.4 L 190.5 150.4 L 190.8 150.4 L 190.8 150.4 L 191.4 150.4 L 191.4 151.5 L 191.5 151.5 L 191.5 152.5 L 191.9 152.5 L 191.9 153.5 L 192.1 153.5 L 192.1 153.5 L 193.7 153.5 L 193.7 153.5 L 194.2 153.5 L 194.2 153.5 L 194.9 153.5 L 194.9 153.5 L 196.9 153.5 L 196.9 153.5 L 198.6 153.5 L 198.6 153.5 L 199.4 153.5 L 199.4 153.5 L 200.6 153.5 L 200.6 153.5 L 201.9 153.5 L 201.9 154.6 L 202.3 154.6 L 202.3 154.6 L 203.7 154.6 L 203.7 154.6 L 205.9 154.6 L 205.9 154.6 L 206.1 154.6 L 206.1 155.7 L 206.2 155.7 L 206.2 155.7 L 206.4 155.7 L 206.4 156.8 L 207.0 156.8 L 207.0 157.9 L 207.2 157.9 L 207.2 159.0 L 211.2 159.0 L 211.2 159.0 L 214.9 159.0 L 214.9 160.2 L 215.2 160.2 L 215.2 161.3 L 216.8 161.3 L 216.8 161.3 L 219.6 161.3 L 219.6 162.4 L 220.2 162.4 L 220.2 162.4 L 221.9 162.4 L 221.9 162.4 L 222.6 162.4 L 222.6 162.4 L 223.2 162.4 L 223.2 162.4 L 224.6 162.4 L 224.6 162.4 L 225.8 162.4 L 225.8 163.6 L 226.8 163.6 L 226.8 163.6 L 234.4 163.6 L 234.4 163.6 L 236.6 163.6 L 236.6 163.6 L 236.7 163.6 L 236.7 164.8 L 237.2 164.8 L 237.2 164.8 L 238.0 164.8 L 238.0 166.1 L 238.2 166.1 L 238.2 167.3 L 240.6 167.3 L 240.6 168.6 L 240.9 168.6 L 240.9 168.6 L 241.7 168.6 L 241.7 168.6 L 242.2 168.6 L 242.2 169.9 L 244.1 169.9 L 244.1 171.1 L 245.1 171.1 L 245.1 171.1 L 245.9 171.1 L 245.9 171.1 L 246.4 171.1 L 246.4 172.4 L 247.1 172.4 L 247.1 172.4 L 251.2 172.4 L 251.2 172.4 L 251.8 172.4 L 251.8 173.8 L 255.2 173.8 L 255.2 173.8 L 256.9 173.8 L 256.9 175.1 L 257.3 175.1 L 257.3 175.1 L 257.5 175.1 L 257.5 175.1 L 258.0 175.1 L 258.0 175.1 L 258.4 175.1 L 258.4 176.6 L 260.2 176.6 L 260.2 178.0 L 261.2 178.0 L 261.2 178.0 L 265.6 178.0 L 265.6 178.0 L 266.1 178.0 L 266.1 178.0 L 266.2 178.0 L 266.2 179.5 L 269.4 179.5 L 269.4 179.5 L 270.3 179.5 L 270.3 179.5 L 270.4 179.5 L 270.4 181.0 L 272.1 181.0 L 272.1 181.0 L 275.2 181.0 L 275.2 181.0 L 275.3 181.0 L 275.3 181.0 L 275.5 181.0 L 275.5 181.0 L 279.4 181.0 L 279.4 181.0 L 280.2 181.0 L 280.2 181.0 L 281.5 181.0 L 281.5 182.7 L 286.2 182.7 L 286.2 184.4 L 286.3 184.4 L 286.3 184.4 L 287.1 184.4 L 287.1 184.4 L 287.7 184.4 L 287.7 184.4 L 289.0 184.4 L 289.0 186.2 L 289.5 186.2 L 289.5 186.2 L 290.0 186.2 L 290.0 188.0 L 295.4 188.0 L 295.4 189.9 L 295.7 189.9 L 295.7 189.9 L 297.8 189.9 L 297.8 189.9 L 297.9 189.9 L 297.9 191.8 L 301.4 191.8 L 301.4 193.7 L 303.4 193.7 L 303.4 195.6 L 306.6 195.6 L 306.6 195.6 L 310.8 195.6 L 310.8 197.6 L 311.2 197.6 L 311.2 197.6 L 315.0 197.6 L 315.0 197.6 L 317.8 197.6 L 317.8 197.6 L 320.2 197.6 L 320.2 197.6 L 321.9 197.6 L 321.9 197.6 L 324.1 197.6 L 324.1 197.6 L 327.3 197.6 L 327.3 197.6 L 332.0 197.6 L 332.0 197.6 L 332.6 197.6 L 332.6 197.6 L 335.7 197.6 L 335.7 200.1 L 337.7 200.1 L 337.7 200.1 L 340.8 200.1 L 340.8 200.1 L 341.2 200.1 L 341.2 202.7 L 344.8 202.7 L 344.8 202.7 L 353.5 202.7 L 353.5 205.4 L 354.3 205.4 L 354.3 205.4 L 355.2 205.4 L 355.2 205.4 L 371.2 205.4 L 371.2 208.4 L 374.9 208.4 L 374.9 208.4 L 384.2 208.4 L 384.2 208.4 L 385.7 208.4 L 385.7 208.4 L 388.3 208.4 L 388.3 211.7 L 390.0 211.7 L 390.0 211.7 L 392.3 211.7 L 392.3 211.7 L 412.2 211.7 L 412.2 211.7 L 431.2 211.7 L 431.2 211.7 L 433.6 211.7 L 433.6 215.9 L 437.2 215.9 L 437.2 215.9 L 438.0 215.9 L 438.0 215.9 L 446.0 215.9 L 446.0 215.9 L 458.7 215.9 L 458.7 215.9 L 466.1 215.9 L 466.1 221.4 L 479.1 221.4 L 479.1 221.4 L 480.6 221.4 L 480.6 221.4 L 500.0 221.4 L 500.0 221.4 L 531.0 221.4 L 531.0 221.4 L 534.1 221.4 L 534.1 230.0 L 543.5 230.0 L 543.5 230.0 L 550.6 230.0 L 550.6 230.0 L 573.4 230.0 L 573.4 230.0 L 748.2 230.0 L 748.2 230.0 L 781.3 230.0 L 781.3 230.0 L 800.0 230.0 L 800.0 230.0" fill="none" stroke="#3b82f6" stroke-width="3"></path>
<path d="M 72.0 72.0 L 72.4 72.0 L 72.4 72.5 L 73.1 72.5 L 73.1 72.5 L 73.2 72.5 L 73.2 72.5 L 73.3 72.5 L 73.3 72.5 L 73.4 72.5 L 73.4 72.5 L 73.7 72.5 L 73.7 72.9 L 73.8 72.9 L 73.8 73.4 L 73.9 73.4 L 73.9 73.8 L 74.2 73.8 L 74.2 74.3 L 74.3 74.3 L 74.3 74.7 L 74.4 74.7 L 74.4 74.7 L 74.8 74.7 L 74.8 74.7 L 75.0 74.7 L 75.0 74.7 L 75.3 74.7 L 75.3 75.2 L 75.8 75.2 L 75.8 75.7 L 76.4 75.7 L 76.4 75.7 L 76.8 75.7 L 76.8 75.7 L 77.0 75.7 L 77.0 75.7 L 77.2 75.7 L 77.2 76.1 L 77.5 76.1 L 77.5 76.1 L 77.8 76.1 L 77.8 76.6 L 78.0 76.6 L 78.0 76.6 L 78.1 76.6 L 78.1 76.6 L 78.2 76.6 L 78.2 77.0 L 79.0 77.0 L 79.0 77.0 L 79.4 77.0 L 79.4 77.5 L 80.4 77.5 L 80.4 78.0 L 81.1 78.0 L 81.1 78.5 L 81.7 78.5 L 81.7 78.9 L 81.9 78.9 L 81.9 79.4 L 82.9 79.4 L 82.9 79.9 L 83.7 79.9 L 83.7 80.3 L 83.9 80.3 L 83.9 80.8 L 84.0 80.8 L 84.0 81.3 L 84.2 81.3 L 84.2 81.8 L 84.3 81.8 L 84.3 81.8 L 84.5 81.8 L 84.5 82.2 L 84.9 82.2 L 84.9 82.2 L 85.0 82.2 L 85.0 82.2 L 85.2 82.2 L 85.2 82.2 L 85.4 82.2 L 85.4 82.2 L 85.5 82.2 L 85.5 82.2 L 85.6 82.2 L 85.6 82.2 L 86.2 82.2 L 86.2 82.2 L 87.2 82.2 L 87.2 82.2 L 87.5 82.2 L 87.5 82.7 L 88.2 82.7 L 88.2 83.2 L 88.6 83.2 L 88.6 83.2 L 88.7 83.2 L 88.7 83.7 L 88.8 83.7 L 88.8 84.2 L 89.2 84.2 L 89.2 84.7 L 89.4 84.7 L 89.4 85.1 L 89.5 85.1 L 89.5 85.1 L 89.7 85.1 L 89.7 85.6 L 90.0 85.6 L 90.0 86.1 L 90.3 86.1 L 90.3 86.1 L 90.5 86.1 L 90.5 86.1 L 90.7 86.1 L 90.7 86.1 L 90.8 86.1 L 90.8 86.6 L 91.4 86.6 L 91.4 87.1 L 91.9 87.1 L 91.9 87.6 L 92.3 87.6 L 92.3 87.6 L 92.8 87.6 L 92.8 87.6 L 93.2 87.6 L 93.2 88.1 L 93.6 88.1 L 93.6 88.6 L 93.9 88.6 L 93.9 88.6 L 94.6 88.6 L 94.6 88.6 L 95.1 88.6 L 95.1 88.6 L 95.7 88.6 L 95.7 89.1 L 95.8 89.1 L 95.8 89.6 L 96.3 89.6 L 96.3 89.6 L 96.4 89.6 L 96.4 90.1 L 96.8 90.1 L 96.8 90.1 L 97.7 90.1 L 97.7 90.1 L 97.9 90.1 L 97.9 90.6 L 98.9 90.6 L 98.9 91.1 L 99.5 91.1 L 99.5 92.1 L 99.6 92.1 L 99.6 92.6 L 100.2 92.6 L 100.2 93.1 L 100.8 93.1 L 100.8 93.1 L 101.2 93.1 L 101.2 93.6 L 101.5 93.6 L 101.5 94.1 L 102.1 94.1 L 102.1 94.6 L 102.3 94.6 L 102.3 95.1 L 102.4 95.1 L 102.4 95.6 L 102.8 95.6 L 102.8 96.1 L 104.2 96.1 L 104.2 97.1 L 104.3 97.1 L 104.3 97.6 L 105.0 97.6 L 105.0 98.1 L 105.7 98.1 L 105.7 99.1 L 106.0 99.1 L 106.0 99.7 L 106.2 99.7 L 106.2 100.7 L 106.5 100.7 L 106.5 101.2 L 106.7 101.2 L 106.7 101.7 L 107.3 101.7 L 107.3 101.7 L 107.5 101.7 L 107.5 101.7 L 107.6 101.7 L 107.6 102.2 L 108.7 102.2 L 108.7 102.2 L 108.9 102.2 L 108.9 102.2 L 109.2 102.2 L 109.2 102.7 L 109.3 102.7 L 109.3 103.2 L 109.4 103.2 L 109.4 103.7 L 109.9 103.7 L 109.9 103.7 L 110.5 103.7 L 110.5 104.7 L 110.7 104.7 L 110.7 105.3 L 111.9 105.3 L 111.9 105.8 L 113.0 105.8 L 113.0 106.3 L 113.1 106.3 L 113.1 106.3 L 113.3 106.3 L 113.3 106.3 L 113.6 106.3 L 113.6 106.3 L 113.7 106.3 L 113.7 106.3 L 113.8 106.3 L 113.8 106.3 L 114.2 106.3 L 114.2 106.3 L 114.4 106.3 L 114.4 106.3 L 114.5 106.3 L 114.5 106.3 L 114.8 106.3 L 114.8 106.3 L 114.9 106.3 L 114.9 106.3 L 115.0 106.3 L 115.0 106.8 L 115.1 106.8 L 115.1 107.4 L 115.4 107.4 L 115.4 107.4 L 115.6 107.4 L 115.6 107.9 L 115.7 107.9 L 115.7 107.9 L 116.2 107.9 L 116.2 107.9 L 116.4 107.9 L 116.4 107.9 L 116.8 107.9 L 116.8 107.9 L 117.0 107.9 L 117.0 107.9 L 117.6 107.9 L 117.6 108.4 L 117.7 108.4 L 117.7 108.4 L 117.8 108.4 L 117.8 109.0 L 117.9 109.0 L 117.9 109.5 L 118.2 109.5 L 118.2 110.1 L 118.4 110.1 L 118.4 110.1 L 118.6 110.1 L 118.6 110.6 L 118.8 110.6 L 118.8 110.6 L 118.9 110.6 L 118.9 110.6 L 119.0 110.6 L 119.0 111.2 L 119.1 111.2 L 119.1 111.8 L 119.6 111.8 L 119.6 112.3 L 119.8 112.3 L 119.8 112.3 L 120.0 112.3 L 120.0 112.3 L 120.6 112.3 L 120.6 112.3 L 120.8 112.3 L 120.8 112.3 L 120.9 112.3 L 120.9 112.3 L 121.0 112.3 L 121.0 112.9 L 121.5 112.9 L 121.5 112.9 L 122.0 112.9 L 122.0 112.9 L 122.1 112.9 L 122.1 112.9 L 122.2 112.9 L 122.2 113.5 L 122.5 113.5 L 122.5 114.0 L 123.2 114.0 L 123.2 114.0 L 123.5 114.0 L 123.5 114.0 L 123.7 114.0 L 123.7 114.0 L 124.1 114.0 L 124.1 114.6 L 124.4 114.6 L 124.4 114.6 L 124.8 114.6 L 124.8 114.6 L 125.6 114.6 L 125.6 114.6 L 125.9 114.6 L 125.9 114.6 L 126.1 114.6 L 126.1 115.2 L 126.2 115.2 L 126.2 115.2 L 126.3 115.2 L 126.3 115.2 L 126.7 115.2 L 126.7 115.2 L 126.8 115.2 L 126.8 115.2 L 126.9 115.2 L 126.9 115.2 L 127.2 115.2 L 127.2 115.8 L 127.3 115.8 L 127.3 115.8 L 127.5 115.8 L 127.5 115.8 L 127.9 115.8 L 127.9 116.4 L 128.1 116.4 L 128.1 117.0 L 128.7 117.0 L 128.7 117.0 L 129.0 117.0 L 129.0 117.0 L 129.1 117.0 L 129.1 117.0 L 129.6 117.0 L 129.6 117.0 L 130.1 117.0 L 130.1 117.0 L 130.5 117.0 L 130.5 117.7 L 130.9 117.7 L 130.9 118.3 L 131.4 118.3 L 131.4 118.3 L 131.7 118.3 L 131.7 118.9 L 131.8 118.9 L 131.8 118.9 L 131.9 118.9 L 131.9 118.9 L 132.1 118.9 L 132.1 119.6 L 132.2 119.6 L 132.2 119.6 L 132.3 119.6 L 132.3 119.6 L 132.4 119.6 L 132.4 119.6 L 132.6 119.6 L 132.6 119.6 L 132.7 119.6 L 132.7 120.2 L 132.8 120.2 L 132.8 120.2 L 133.0 120.2 L 133.0 120.2 L 133.1 120.2 L 133.1 120.2 L 133.2 120.2 L 133.2 120.2 L 133.3 120.2 L 133.3 120.2 L 133.7 120.2 L 133.7 120.2 L 133.8 120.2 L 133.8 120.2 L 134.0 120.2 L 134.0 120.2 L 134.7 120.2 L 134.7 120.9 L 134.8 120.9 L 134.8 121.6 L 134.9 121.6 L 134.9 122.2 L 135.2 122.2 L 135.2 122.2 L 135.3 122.2 L 135.3 122.2 L 135.7 122.2 L 135.7 122.2 L 136.8 122.2 L 136.8 122.9 L 137.4 122.9 L 137.4 122.9 L 137.5 122.9 L 137.5 122.9 L 137.9 122.9 L 137.9 123.6 L 138.1 123.6 L 138.1 123.6 L 138.7 123.6 L 138.7 123.6 L 138.9 123.6 L 138.9 124.4 L 139.0 124.4 L 139.0 125.1 L 139.2 125.1 L 139.2 125.8 L 139.3 125.8 L 139.3 125.8 L 139.4 125.8 L 139.4 125.8 L 139.7 125.8 L 139.7 125.8 L 140.0 125.8 L 140.0 125.8 L 140.6 125.8 L 140.6 125.8 L 141.2 125.8 L 141.2 125.8 L 141.3 125.8 L 141.3 125.8 L 141.4 125.8 L 141.4 125.8 L 141.5 125.8 L 141.5 126.5 L 141.7 126.5 L 141.7 127.3 L 142.0 127.3 L 142.0 128.0 L 142.4 128.0 L 142.4 128.0 L 142.5 128.0 L 142.5 128.8 L 142.7 128.8 L 142.7 128.8 L 143.4 128.8 L 143.4 129.5 L 144.1 129.5 L 144.1 129.5 L 144.2 129.5 L 144.2 130.3 L 144.6 130.3 L 144.6 130.3 L 144.7 130.3 L 144.7 130.3 L 145.1 130.3 L 145.1 130.3 L 145.3 130.3 L 145.3 130.3 L 146.0 130.3 L 146.0 131.0 L 146.2 131.0 L 146.2 131.0 L 146.4 131.0 L 146.4 131.0 L 147.0 131.0 L 147.0 131.0 L 148.0 131.0 L 148.0 131.0 L 148.3 131.0 L 148.3 131.8 L 148.4 131.8 L 148.4 132.6 L 149.6 132.6 L 149.6 132.6 L 149.8 132.6 L 149.8 132.6 L 151.4 132.6 L 151.4 132.6 L 152.4 132.6 L 152.4 133.5 L 152.9 133.5 L 152.9 133.5 L 153.0 133.5 L 153.0 133.5 L 153.1 133.5 L 153.1 134.3 L 153.2 134.3 L 153.2 135.2 L 153.7 135.2 L 153.7 135.2 L 154.6 135.2 L 154.6 136.0 L 155.0 136.0 L 155.0 137.7 L 155.4 137.7 L 155.4 137.7 L 155.9 137.7 L 155.9 138.6 L 156.3 138.6 L 156.3 138.6 L 156.9 138.6 L 156.9 138.6 L 157.3 138.6 L 157.3 138.6 L 157.6 138.6 L 157.6 138.6 L 157.9 138.6 L 157.9 139.5 L 158.6 139.5 L 158.6 139.5 L 158.7 139.5 L 158.7 139.5 L 158.8 139.5 L 158.8 140.3 L 159.0 140.3 L 159.0 140.3 L 159.3 140.3 L 159.3 141.2 L 159.6 141.2 L 159.6 141.2 L 160.3 141.2 L 160.3 142.1 L 160.6 142.1 L 160.6 142.1 L 161.2 142.1 L 161.2 142.1 L 161.3 142.1 L 161.3 142.1 L 162.0 142.1 L 162.0 143.1 L 162.8 143.1 L 162.8 143.1 L 162.9 143.1 L 162.9 144.0 L 163.4 144.0 L 163.4 144.0 L 164.6 144.0 L 164.6 145.0 L 165.1 145.0 L 165.1 145.9 L 165.7 145.9 L 165.7 146.9 L 166.8 146.9 L 166.8 146.9 L 167.1 146.9 L 167.1 146.9 L 167.3 146.9 L 167.3 147.8 L 167.4 147.8 L 167.4 148.8 L 167.6 148.8 L 167.6 149.8 L 168.9 149.8 L 168.9 150.7 L 170.0 150.7 L 170.0 151.7 L 170.1 151.7 L 170.1 151.7 L 171.1 151.7 L 171.1 152.7 L 171.2 152.7 L 171.2 152.7 L 171.7 152.7 L 171.7 152.7 L 171.9 152.7 L 171.9 154.7 L 172.3 154.7 L 172.3 155.7 L 173.0 155.7 L 173.0 156.7 L 175.1 156.7 L 175.1 157.7 L 175.6 157.7 L 175.6 157.7 L 175.7 157.7 L 175.7 157.7 L 176.1 157.7 L 176.1 157.7 L 176.8 157.7 L 176.8 158.7 L 177.1 158.7 L 177.1 159.7 L 178.5 159.7 L 178.5 159.7 L 179.2 159.7 L 179.2 160.7 L 179.8 160.7 L 179.8 161.8 L 180.4 161.8 L 180.4 161.8 L 183.2 161.8 L 183.2 162.8 L 184.0 162.8 L 184.0 163.8 L 184.3 163.8 L 184.3 163.8 L 184.4 163.8 L 184.4 163.8 L 185.0 163.8 L 185.0 163.8 L 185.1 163.8 L 185.1 163.8 L 185.5 163.8 L 185.5 163.8 L 186.0 163.8 L 186.0 164.9 L 187.2 164.9 L 187.2 166.0 L 188.4 166.0 L 188.4 166.0 L 188.8 166.0 L 188.8 166.0 L 189.2 166.0 L 189.2 167.1 L 189.6 167.1 L 189.6 168.3 L 190.0 168.3 L 190.0 168.3 L 190.1 168.3 L 190.1 168.3 L 190.7 168.3 L 190.7 168.3 L 191.4 168.3 L 191.4 168.3 L 192.2 168.3 L 192.2 169.4 L 193.4 169.4 L 193.4 170.6 L 194.0 170.6 L 194.0 171.8 L 194.8 171.8 L 194.8 171.8 L 195.4 171.8 L 195.4 173.0 L 195.8 173.0 L 195.8 173.0 L 196.4 173.0 L 196.4 173.0 L 197.2 173.0 L 197.2 173.0 L 198.5 173.0 L 198.5 173.0 L 199.1 173.0 L 199.1 174.2 L 199.4 174.2 L 199.4 175.4 L 199.8 175.4 L 199.8 175.4 L 200.6 175.4 L 200.6 175.4 L 201.1 175.4 L 201.1 175.4 L 201.4 175.4 L 201.4 176.7 L 202.7 176.7 L 202.7 176.7 L 203.1 176.7 L 203.1 176.7 L 204.1 176.7 L 204.1 178.0 L 205.0 178.0 L 205.0 178.0 L 207.7 178.0 L 207.7 178.0 L 208.3 178.0 L 208.3 179.4 L 209.3 179.4 L 209.3 179.4 L 210.5 179.4 L 210.5 180.8 L 212.6 180.8 L 212.6 180.8 L 214.7 180.8 L 214.7 182.1 L 215.5 182.1 L 215.5 182.1 L 215.7 182.1 L 215.7 182.1 L 215.8 182.1 L 215.8 182.1 L 218.0 182.1 L 218.0 183.6 L 220.6 183.6 L 220.6 183.6 L 221.2 183.6 L 221.2 185.1 L 221.9 185.1 L 221.9 186.5 L 222.6 186.5 L 222.6 188.0 L 222.8 188.0 L 222.8 189.5 L 224.3 189.5 L 224.3 190.9 L 225.0 190.9 L 225.0 190.9 L 225.5 190.9 L 225.5 192.4 L 225.8 192.4 L 225.8 192.4 L 228.6 192.4 L 228.6 192.4 L 232.7 192.4 L 232.7 194.0 L 232.9 194.0 L 232.9 194.0 L 234.8 194.0 L 234.8 194.0 L 234.9 194.0 L 234.9 195.6 L 235.9 195.6 L 235.9 197.2 L 241.0 197.2 L 241.0 197.2 L 242.8 197.2 L 242.8 197.2 L 245.3 197.2 L 245.3 198.8 L 245.6 198.8 L 245.6 198.8 L 250.6 198.8 L 250.6 200.5 L 252.6 200.5 L 252.6 202.2 L 255.8 202.2 L 255.8 203.9 L 259.2 203.9 L 259.2 203.9 L 259.8 203.9 L 259.8 203.9 L 262.1 203.9 L 262.1 203.9 L 264.0 203.9 L 264.0 205.7 L 268.2 205.7 L 268.2 207.6 L 269.2 207.6 L 269.2 207.6 L 272.6 207.6 L 272.6 207.6 L 275.6 207.6 L 275.6 209.5 L 279.6 209.5 L 279.6 209.5 L 280.9 209.5 L 280.9 209.5 L 283.8 209.5 L 283.8 209.5 L 286.6 209.5 L 286.6 209.5 L 289.1 209.5 L 289.1 209.5 L 290.4 209.5 L 290.4 211.7 L 292.9 211.7 L 292.9 211.7 L 295.4 211.7 L 295.4 211.7 L 299.1 211.7 L 299.1 211.7 L 309.0 211.7 L 309.0 211.7 L 309.8 211.7 L 309.8 211.7 L 314.0 211.7 L 314.0 214.3 L 318.0 214.3 L 318.0 214.3 L 324.6 214.3 L 324.6 214.3 L 332.1 214.3 L 332.1 214.3 L 334.8 214.3 L 334.8 214.3 L 334.9 214.3 L 334.9 217.3 L 335.2 217.3 L 335.2 220.4 L 337.1 220.4 L 337.1 223.5 L 341.3 223.5 L 341.3 226.6 L 355.5 226.6 L 355.5 226.6 L 356.5 226.6 L 356.5 226.6 L 367.8 226.6 L 367.8 230.0 L 370.6 230.0 L 370.6 230.0 L 379.3 230.0 L 379.3 230.0 L 398.7 230.0 L 398.7 234.0 L 399.5 234.0 L 399.5 234.0 L 404.0 234.0 L 404.0 234.0 L 409.6 234.0 L 409.6 238.8 L 437.1 238.8 L 437.1 238.8 L 441.0 238.8 L 441.0 238.8 L 448.4 238.8 L 448.4 238.8 L 449.6 238.8 L 449.6 238.8 L 457.5 238.8 L 457.5 247.5 L 467.7 247.5 L 467.7 247.5 L 476.4 247.5 L 476.4 247.5 L 550.6 247.5 L 550.6 247.5 L 603.0 247.5 L 603.0 282.0" fill="none" stroke="#f97316" stroke-width="3"></path>
<text x="72" y="306" class="axis-label">0</text>
<text x="730" y="306" class="axis-label">7248</text>
<text x="366.0" y="326" class="axis-label">Follow-up time (days)</text>
<text x="8" y="217.0" class="axis-label" transform="rotate(-90 8 217.0)">Survival probability</text>
<text x="64" y="80" class="axis-label" text-anchor="end">1.0</text>
<text x="64" y="282" class="axis-label" text-anchor="end">0.0</text>
<rect x="80" y="84" width="14" height="10" fill="#3b82f6"></rect>
<text x="100" y="94" class="legend">High expression, n=465, events=174</text>
<rect x="80" y="102" width="14" height="10" fill="#f97316"></rect>
<text x="100" y="112" class="legend">Low expression, n=466, events=187</text>
</svg>