<svg viewBox="0 0 840 594" role="img" aria-label="RNA expression survival association strength (-log10 p)">
<text x="0" y="24" class="chart-title">RNA expression survival association strength (-log10 p)</text>
<text x="0" y="71" class="axis-label">FAT1</text>
<rect x="210" y="54" width="540.0" height="24" rx="4" fill="#7c3aed"></rect>
<text x="758.0" y="71" class="value-label">2</text>
<text x="0" y="105" class="axis-label">PTEN</text>
<rect x="210" y="88" width="270.0" height="24" rx="4" fill="#7c3aed"></rect>
<text x="488.0" y="105" class="value-label">1</text>
<text x="0" y="139" class="axis-label">SOX2</text>
<rect x="210" y="122" width="270.0" height="24" rx="4" fill="#7c3aed"></rect>
<text x="488.0" y="139" class="value-label">1</text>
<text x="0" y="173" class="axis-label">ALK</text>
<rect x="210" y="156" width="1.0" height="24" rx="4" fill="#7c3aed"></rect>
<text x="219.0" y="173" class="value-label">0</text>
<text x="0" y="207" class="axis-label">CDKN2A</text>
<rect x="210" y="190" width="1.0" height="24" rx="4" fill="#7c3aed"></rect>
<text x="219.0" y="207" class="value-label">0</text>
<text x="0" y="241" class="axis-label">CUL3</text>
<rect x="210" y="224" width="1.0" height="24" rx="4" fill="#7c3aed"></rect>
<text x="219.0" y="241" class="value-label">0</text>
<text x="0" y="275" class="axis-label">ERBB2</text>
<rect x="210" y="258" width="1.0" height="24" rx="4" fill="#7c3aed"></rect>
<text x="219.0" y="275" class="value-label">0</text>
<text x="0" y="309" class="axis-label">KMT2C</text>
<rect x="210" y="292" width="1.0" height="24" rx="4" fill="#7c3aed"></rect>
<text x="219.0" y="309" class="value-label">0</text>
<text x="0" y="343" class="axis-label">MET</text>
<rect x="210" y="326" width="1.0" height="24" rx="4" fill="#7c3aed"></rect>
<text x="219.0" y="343" class="value-label">0</text>
<text x="0" y="377" class="axis-label">NOTCH1</text>
<rect x="210" y="360" width="1.0" height="24" rx="4" fill="#7c3aed"></rect>
<text x="219.0" y="377" class="value-label">0</text>
<text x="0" y="411" class="axis-label">NOTCH2</text>
<rect x="210" y="394" width="1.0" height="24" rx="4" fill="#7c3aed"></rect>
<text x="219.0" y="411" class="value-label">0</text>
<text x="0" y="445" class="axis-label">NTRK1</text>
<rect x="210" y="428" width="1.0" height="24" rx="4" fill="#7c3aed"></rect>
<text x="219.0" y="445" class="value-label">0</text>
<text x="0" y="479" class="axis-label">NTRK2</text>
<rect x="210" y="462" width="1.0" height="24" rx="4" fill="#7c3aed"></rect>
<text x="219.0" y="479" class="value-label">0</text>
<text x="0" y="513" class="axis-label">PIK3CA</text>
<rect x="210" y="496" width="1.0" height="24" rx="4" fill="#7c3aed"></rect>
<text x="219.0" y="513" class="value-label">0</text>
<text x="0" y="547" class="axis-label">ROS1</text>
<rect x="210" y="530" width="1.0" height="24" rx="4" fill="#7c3aed"></rect>
<text x="219.0" y="547" class="value-label">0</text>
</svg>