<svg viewBox="0 0 840 356" role="img" aria-label="Treatment and outcome field coverage (patients with data)">
<text x="0" y="24" class="chart-title">Treatment and outcome field coverage (patients with data)</text>
<text x="0" y="71" class="axis-label">prior treatment</text>
<rect x="210" y="54" width="540.0" height="24" rx="4" fill="#16a34a"></rect>
<text x="758.0" y="71" class="value-label">955</text>
<text x="0" y="105" class="axis-label">treatment types</text>
<rect x="210" y="88" width="505.5" height="24" rx="4" fill="#16a34a"></rect>
<text x="723.5" y="105" class="value-label">894</text>
<text x="0" y="139" class="axis-label">disease response</text>
<rect x="210" y="122" width="473.3" height="24" rx="4" fill="#16a34a"></rect>
<text x="691.3" y="139" class="value-label">837</text>
<text x="0" y="173" class="axis-label">treatment or therapy</text>
<rect x="210" y="156" width="464.8" height="24" rx="4" fill="#16a34a"></rect>
<text x="682.8" y="173" class="value-label">822</text>
<text x="0" y="207" class="axis-label">days to treatment start</text>
<rect x="210" y="190" width="218.3" height="24" rx="4" fill="#16a34a"></rect>
<text x="436.3" y="207" class="value-label">386</text>
<text x="0" y="241" class="axis-label">therapeutic agents</text>
<rect x="210" y="224" width="160.6" height="24" rx="4" fill="#16a34a"></rect>
<text x="378.6" y="241" class="value-label">284</text>
<text x="0" y="275" class="axis-label">progression or recurrence</text>
<rect x="210" y="258" width="160.0" height="24" rx="4" fill="#16a34a"></rect>
<text x="378.0" y="275" class="value-label">283</text>
<text x="0" y="309" class="axis-label">treatment outcomes</text>
<rect x="210" y="292" width="122.1" height="24" rx="4" fill="#16a34a"></rect>
<text x="340.1" y="309" class="value-label">216</text>
</svg>