<svg viewBox="0 0 840 492" role="img" aria-label="Top therapeutic agents">
<text x="0" y="24" class="chart-title">Top therapeutic agents</text>
<text x="0" y="71" class="axis-label">Cisplatin</text>
<rect x="210" y="54" width="540.0" height="24" rx="4" fill="#f97316"></rect>
<text x="758.0" y="71" class="value-label">154</text>
<text x="0" y="105" class="axis-label">Carboplatin</text>
<rect x="210" y="88" width="431.3" height="24" rx="4" fill="#f97316"></rect>
<text x="649.3" y="105" class="value-label">123</text>
<text x="0" y="139" class="axis-label">Paclitaxel</text>
<rect x="210" y="122" width="227.9" height="24" rx="4" fill="#f97316"></rect>
<text x="445.9" y="139" class="value-label">65</text>
<text x="0" y="173" class="axis-label">Docetaxel</text>
<rect x="210" y="156" width="171.8" height="24" rx="4" fill="#f97316"></rect>
<text x="389.8" y="173" class="value-label">49</text>
<text x="0" y="207" class="axis-label">Pemetrexed Disodium</text>
<rect x="210" y="190" width="164.8" height="24" rx="4" fill="#f97316"></rect>
<text x="382.8" y="207" class="value-label">47</text>
<text x="0" y="241" class="axis-label">Gemcitabine</text>
<rect x="210" y="224" width="133.2" height="24" rx="4" fill="#f97316"></rect>
<text x="351.2" y="241" class="value-label">38</text>
<text x="0" y="275" class="axis-label">Vinorelbine</text>
<rect x="210" y="258" width="122.7" height="24" rx="4" fill="#f97316"></rect>
<text x="340.7" y="275" class="value-label">35</text>
<text x="0" y="309" class="axis-label">Vinorelbine Tartrate</text>
<rect x="210" y="292" width="108.7" height="24" rx="4" fill="#f97316"></rect>
<text x="326.7" y="309" class="value-label">31</text>
<text x="0" y="343" class="axis-label">Etoposide</text>
<rect x="210" y="326" width="98.2" height="24" rx="4" fill="#f97316"></rect>
<text x="316.2" y="343" class="value-label">28</text>
<text x="0" y="377" class="axis-label">Erlotinib Hydrochloride</text>
<rect x="210" y="360" width="66.6" height="24" rx="4" fill="#f97316"></rect>
<text x="284.6" y="377" class="value-label">19</text>
<text x="0" y="411" class="axis-label">Gemcitabine Hydrochloride</text>
<rect x="210" y="394" width="66.6" height="24" rx="4" fill="#f97316"></rect>
<text x="284.6" y="411" class="value-label">19</text>
<text x="0" y="445" class="axis-label">Pemetrexed</text>
<rect x="210" y="428" width="63.1" height="24" rx="4" fill="#f97316"></rect>
<text x="281.1" y="445" class="value-label">18</text>
</svg>